{
	"asset":{
		"generator":"Khronos glTF Blender I/O v3.6.28",
		"version":"2.0"
	},
	"extensionsUsed":[
		"KHR_materials_specular",
		"KHR_materials_ior"
	],
	"scene":0,
	"scenes":[
		{
			"name":"Scene",
			"nodes":[
				0
			]
		}
	],
	"nodes":[
		{
			"mesh":0,
			"name":"wyvern.004",
			"rotation":[
				0.03645966574549675,
				0.4369470775127411,
				-0.053210463374853134,
				0.8971715569496155
			],
			"scale":[
				0.2505796253681183,
				0.2505796253681183,
				0.2505796253681183
			],
			"translation":[
				-3.0543720722198486,
				-24.447856903076172,
				-0.5001207590103149
			]
		}
	],
	"materials":[
		{
			"doubleSided":true,
			"extensions":{
				"KHR_materials_specular":{
					"specularColorFactor":[
						2.371357614441398,
						2.371357614441398,
						2.371357614441398
					]
				},
				"KHR_materials_ior":{
					"ior":1.4500000476837158
				}
			},
			"name":"blinn3",
			"pbrMetallicRoughness":{
				"baseColorTexture":{
					"index":0
				},
				"metallicFactor":0.5,
				"roughnessFactor":0.7487671971321106
			}
		},
		{
			"doubleSided":true,
			"extensions":{
				"KHR_materials_specular":{
					"specularColorFactor":[
						2.371357614441398,
						2.371357614441398,
						2.371357614441398
					]
				},
				"KHR_materials_ior":{
					"ior":1.4500000476837158
				}
			},
			"name":"blinn1.003",
			"pbrMetallicRoughness":{
				"baseColorTexture":{
					"index":1
				},
				"metallicFactor":0.5,
				"roughnessFactor":0.7487671971321106
			}
		},
		{
			"doubleSided":true,
			"extensions":{
				"KHR_materials_specular":{
					"specularColorFactor":[
						2.371357614441398,
						2.371357614441398,
						2.371357614441398
					]
				},
				"KHR_materials_ior":{
					"ior":1.4500000476837158
				}
			},
			"name":"blinn2.003",
			"pbrMetallicRoughness":{
				"baseColorTexture":{
					"index":2
				},
				"metallicFactor":0.5,
				"roughnessFactor":0.7487671971321106
			}
		}
	],
	"meshes":[
		{
			"name":"Mesh.005",
			"primitives":[
				{
					"attributes":{
						"POSITION":0,
						"NORMAL":1,
						"TEXCOORD_0":2
					},
					"indices":3,
					"material":0
				},
				{
					"attributes":{
						"POSITION":4,
						"NORMAL":5,
						"TEXCOORD_0":6
					},
					"indices":7,
					"material":1
				},
				{
					"attributes":{
						"POSITION":8,
						"NORMAL":9,
						"TEXCOORD_0":10
					},
					"indices":11,
					"material":2
				}
			]
		}
	],
	"textures":[
		{
			"sampler":0,
			"source":0
		},
		{
			"sampler":0,
			"source":1
		},
		{
			"sampler":0,
			"source":2
		}
	],
	"images":[
		{
			"bufferView":4,
			"mimeType":"image/jpeg",
			"name":"winterwyvern_crown_color"
		},
		{
			"bufferView":9,
			"mimeType":"image/jpeg",
			"name":"winterwyvern_backface_color"
		},
		{
			"bufferView":14,
			"mimeType":"image/jpeg",
			"name":"__winterwyvern_base_color"
		}
	],
	"accessors":[
		{
			"bufferView":0,
			"componentType":5126,
			"count":452,
			"max":[
				0.20494592189788818,
				116.66730499267578,
				-4.684564590454102
			],
			"min":[
				-3.5587563514709473,
				112.70053100585938,
				-6.43074893951416
			],
			"type":"VEC3"
		},
		{
			"bufferView":1,
			"componentType":5126,
			"count":452,
			"type":"VEC3"
		},
		{
			"bufferView":2,
			"componentType":5126,
			"count":452,
			"type":"VEC2"
		},
		{
			"bufferView":3,
			"componentType":5123,
			"count":2034,
			"type":"SCALAR"
		},
		{
			"bufferView":5,
			"componentType":5126,
			"count":1469,
			"max":[
				15.522868156433105,
				115.38648986816406,
				13.868736267089844
			],
			"min":[
				-13.283255577087402,
				91.18663024902344,
				-7.95235538482666
			],
			"type":"VEC3"
		},
		{
			"bufferView":6,
			"componentType":5126,
			"count":1469,
			"type":"VEC3"
		},
		{
			"bufferView":7,
			"componentType":5126,
			"count":1469,
			"type":"VEC2"
		},
		{
			"bufferView":8,
			"componentType":5123,
			"count":6243,
			"type":"SCALAR"
		},
		{
			"bufferView":10,
			"componentType":5126,
			"count":2552,
			"max":[
				5.056375980377197,
				114.14017486572266,
				13.541866302490234
			],
			"min":[
				-5.556508541107178,
				97.48211669921875,
				-7.1182355880737305
			],
			"type":"VEC3"
		},
		{
			"bufferView":11,
			"componentType":5126,
			"count":2552,
			"type":"VEC3"
		},
		{
			"bufferView":12,
			"componentType":5126,
			"count":2552,
			"type":"VEC2"
		},
		{
			"bufferView":13,
			"componentType":5123,
			"count":12552,
			"type":"SCALAR"
		}
	],
	"bufferViews":[
		{
			"buffer":0,
			"byteLength":5424,
			"byteOffset":0,
			"target":34962
		},
		{
			"buffer":0,
			"byteLength":5424,
			"byteOffset":5424,
			"target":34962
		},
		{
			"buffer":0,
			"byteLength":3616,
			"byteOffset":10848,
			"target":34962
		},
		{
			"buffer":0,
			"byteLength":4068,
			"byteOffset":14464,
			"target":34963
		},
		{
			"buffer":0,
			"byteLength":131864,
			"byteOffset":18532
		},
		{
			"buffer":0,
			"byteLength":17628,
			"byteOffset":150396,
			"target":34962
		},
		{
			"buffer":0,
			"byteLength":17628,
			"byteOffset":168024,
			"target":34962
		},
		{
			"buffer":0,
			"byteLength":11752,
			"byteOffset":185652,
			"target":34962
		},
		{
			"buffer":0,
			"byteLength":12486,
			"byteOffset":197404,
			"target":34963
		},
		{
			"buffer":0,
			"byteLength":411992,
			"byteOffset":209892
		},
		{
			"buffer":0,
			"byteLength":30624,
			"byteOffset":621884,
			"target":34962
		},
		{
			"buffer":0,
			"byteLength":30624,
			"byteOffset":652508,
			"target":34962
		},
		{
			"buffer":0,
			"byteLength":20416,
			"byteOffset":683132,
			"target":34962
		},
		{
			"buffer":0,
			"byteLength":25104,
			"byteOffset":703548,
			"target":34963
		},
		{
			"buffer":0,
			"byteLength":555208,
			"byteOffset":728652
		}
	],
	"samplers":[
		{
			"magFilter":9729,
			"minFilter":9987
		}
	],
	"buffers":[
		{
			"byteLength":1283860,
			"uri":"data:application/octet-stream;base64,"
		}
	]
}
